<svg width="25" height="25" viewBox="0 0 25 25" stroke="#C1C1C1" fill="none" xmlns="http://www.w3.org/2000/svg">
<path d="M2.08333 9.375C2.08333 6.42872 2.08333 4.95558 2.99862 4.04029C3.91391 3.125 5.38705 3.125 8.33333 3.125H16.6667C19.6129 3.125 21.086 3.125 22.0014 4.04029C22.9167 4.95558 22.9167 6.42872 22.9167 9.375V10.4167C22.9167 13.3629 22.9167 14.836 22.0014 15.7514C21.086 16.6667 19.6129 16.6667 16.6667 16.6667H8.33333C5.38705 16.6667 3.91391 16.6667 2.99862 15.7514C2.08333 14.836 2.08333 13.3629 2.08333 10.4167V9.375Z" stroke-width="1.5"/>
<path d="M12.5 19.7917V17.1875M12.5 19.7917L18.75 21.875M12.5 19.7917L6.25 21.875" stroke-width="1.5" stroke-linecap="round"/>
</svg>
