<svg width="25" height="25" viewBox="0 0 25 25" fill="none" xmlns="http://www.w3.org/2000/svg">
<path d="M2.46257 13.4978C2.06732 10.7508 1.8697 9.3774 2.43268 8.20308C2.99566 7.02876 4.19395 6.31495 6.59053 4.88731L8.03307 4.028C10.2094 2.73156 11.2976 2.08334 12.5 2.08334C13.7024 2.08334 14.7906 2.73156 16.9669 4.028L18.4095 4.88731C20.806 6.31495 22.0044 7.02876 22.5673 8.20308C23.1303 9.3774 22.9327 10.7508 22.5374 13.4978L22.2471 15.5158C21.7393 19.0445 21.4854 20.8088 20.2615 21.8627C19.0374 22.9167 17.2423 22.9167 13.6522 22.9167H11.3478C7.75768 22.9167 5.96259 22.9167 4.73857 21.8627C3.51454 20.8088 3.26068 19.0445 2.75296 15.5158L2.46257 13.4978Z" stroke="#C1C1C1" stroke-width="1.5"/>
<path d="M15.625 18.75H9.375" stroke="#C1C1C1" stroke-width="1.5" stroke-linecap="round"/>
</svg>
