<svg width="25" height="25" viewBox="0 0 25 25" fill="none" xmlns="http://www.w3.org/2000/svg">
<path d="M9.59621 10.5976L11.6952 8.9261C13.052 7.84563 13.7304 7.30539 14.1568 7.57221C14.5832 7.83904 14.3618 8.66526 13.9191 10.3177L13.8773 10.4736C13.7176 11.0695 13.6377 11.3675 13.7781 11.6054L13.7855 11.6178C13.931 11.8529 14.2412 11.9361 14.8616 12.1023C15.9778 12.4014 16.536 12.5509 16.634 12.94C16.6355 12.9465 16.6371 12.9529 16.6384 12.9594C16.7244 13.3509 16.2841 13.7016 15.4034 14.4028L13.3045 16.0744C11.9476 17.1548 11.2693 17.6951 10.8428 17.4282C10.4164 17.1614 10.6378 16.3352 11.0806 14.6827L11.1224 14.527C11.2821 13.9309 11.362 13.6329 11.2216 13.395L11.2142 13.3826C11.0686 13.1475 10.7584 13.0644 10.1381 12.8982C9.02183 12.5991 8.46369 12.4495 8.36577 12.0604C8.36414 12.054 8.36262 12.0475 8.36119 12.0411C8.27525 11.6496 8.71557 11.2989 9.59621 10.5976Z" stroke="#C1C1C1" stroke-opacity="0.756863" stroke-width="1.5"/>
<path d="M2.08333 12.5C2.08333 6.74704 6.74703 2.08334 12.5 2.08334C18.2529 2.08334 22.9167 6.74704 22.9167 12.5C22.9167 18.2529 18.2529 22.9167 12.5 22.9167C6.74703 22.9167 2.08333 18.2529 2.08333 12.5Z" stroke="#C1C1C1" stroke-opacity="0.756863" stroke-width="1.5"/>
</svg>
