<svg width="51" height="51" viewBox="0 0 51 51" fill="none" xmlns="http://www.w3.org/2000/svg">
<path d="M7.44054 22.1404C5.93711 20.418 4.68574 18.4789 3.72601 16.3842C2.15765 12.9407 2.14114 11.0277 2.48783 10.8916C2.83452 10.7556 7.86977 10.9852 10.1645 11.0022C12.4593 11.0192 13.4663 11.0022 13.4663 10.8661C13.4663 10.7301 13.1279 6.95499 12.839 4.9144C12.5501 2.8738 12.2694 1.5134 12.4345 1.46239C14.8431 1.64402 17.2085 2.21798 19.4426 3.16288C23.5699 4.71884 24.3953 6.23228 24.3953 6.23228C26.7236 4.39265 29.291 2.89865 32.0225 1.79398C36.0259 0.348562 37.6025 0.552622 37.7428 0.799194C37.8832 1.04577 35.8608 10.4835 36.2075 10.5856C38.056 10.5636 39.8904 10.2511 41.6472 9.65878C43.9007 8.90206 47.4254 7.10804 47.7968 7.10804C48.1683 7.10804 48.4737 10.1009 46.9219 13.7825C45.37 17.4641 44.9986 17.9657 45.1389 18.0337C46.2827 17.7359 47.403 17.3494 48.4902 16.8774C49.6541 16.3757 50.2649 16.2992 50.4053 16.7243C50.7728 19.8721 50.019 23.0503 48.2839 25.669C45.6342 29.291 44.4703 29.4781 44.3712 29.6226C44.2722 29.7672 44.3712 30.5324 46.9219 31.0765C49.4725 31.6207 50.7602 31.5782 50.7272 32.1478C50.4463 33.4435 49.914 34.6674 49.1622 35.7457C48.4103 36.824 47.4546 37.7346 46.3523 38.4227C42.9762 40.4973 42.7698 40.4973 42.8441 40.7779C42.9184 41.0584 42.9597 46.7296 42.8441 47.1632C42.7286 47.5969 41.5812 48.3451 39.7652 48.0135C38.1188 47.6968 36.522 47.1504 35.0189 46.3895C34.6593 46.141 34.3247 45.8562 34.0201 45.5393C34.0201 45.5393 30.9824 47.1887 30.2643 47.4778C29.8361 47.651 29.3903 47.7736 28.9353 47.8434C28.9353 47.8434 28.9353 50.2411 28.8445 50.3942C28.7494 50.4844 28.6336 50.5482 28.5079 50.5795C28.3822 50.6107 28.2509 50.6084 28.1263 50.5727C27.6972 50.5007 27.2595 50.5007 26.8304 50.5727C26.5593 50.6415 26.276 50.6415 26.0049 50.5727C25.571 50.5345 25.1347 50.5345 24.7007 50.5727C24.321 50.5727 23.3965 50.5727 23.3305 50.3347C23.2644 50.0966 23.1406 48.039 23.1406 48.039C21.8401 47.9399 20.569 47.591 19.3931 47.0102C18.6635 46.6049 18.0095 46.0694 17.4615 45.4287C16.3664 46.5381 14.9757 47.2869 13.4663 47.5799C11.2789 47.8434 10.1067 47.5799 10.1645 47.3928C10.2223 47.2057 11.9062 41.5941 11.4935 41.6281C11.0808 41.6621 3.92411 41.9767 3.33804 41.9767C2.75197 41.9767 2.09987 41.288 2.33925 40.7524C2.57863 40.2167 5.64105 35.0047 6.80494 33.7973C7.96882 32.59 8.61268 31.8418 8.61268 31.8418C7.14878 31.208 5.61184 30.7708 4.03968 30.5409C1.77794 30.2773 0.6058 29.5036 0.737873 29.223C1.71175 27.5312 2.9247 25.9981 4.33684 24.6742C5.97123 23.2883 7.44054 22.1404 7.44054 22.1404Z" fill="#1D1D1B"/>
<path d="M4.13872 12.286C4.38636 12.031 15.2823 12.3371 15.3153 12.1245C15.3483 11.9119 13.7635 2.64423 14.0772 2.64423C16.6549 3.42209 19.1451 4.47948 21.5062 5.79865C23.6771 7.22707 23.7845 7.75422 24.3705 7.72021C24.9566 7.6862 27.6723 5.00792 31.3291 3.571C34.9858 2.13408 36.2158 2.04056 36.2158 2.1851C36.2158 2.32964 35.0271 8.40041 34.796 9.53124C34.5649 10.6621 34.4328 11.8609 34.6722 11.9289C36.9733 11.9969 39.2714 11.7103 41.4904 11.0787C44.7344 10.1349 47.0539 8.81704 47.0952 9.06361C46.3203 11.7233 45.3175 14.3069 44.0988 16.7839C43.1165 18.3398 42.7203 19.6832 42.9267 19.7937C43.133 19.9043 44.2969 19.5302 46.5174 18.8415C48.7379 18.1528 48.9937 18.0422 48.9937 18.1528C49.0357 20.4568 48.4029 22.7204 47.1777 24.6487C45.8512 26.4938 44.3099 28.1643 42.5882 29.6226C42.7045 30.0867 42.9107 30.5218 43.1944 30.9017C43.4781 31.2816 43.8335 31.5985 44.2391 31.8333C45.2049 32.2839 48.9442 32.8535 48.9112 33.0661C48.0285 35.2129 46.4894 37.0041 44.528 38.1676C41.6307 39.7066 41.284 39.8681 41.2262 40.1402C41.1685 40.4123 41.3748 46.313 41.1354 46.347C39.738 46.2322 38.3553 45.973 37.0082 45.5733C35.8443 45.1566 35.3573 44.774 35.3573 44.672C36.2881 43.4991 37.0729 42.2109 37.6933 40.8374C38.0226 40.0206 38.2473 39.1631 38.3619 38.2866C38.3619 38.2866 42.1342 38.4737 42.4892 35.7359C42.8441 32.9981 40.9291 32.4964 40.3843 32.4029C40.0239 32.3187 39.656 32.2731 39.2864 32.2669C39.2864 32.2669 40.244 23.5093 37.3631 18.6629C34.4823 13.8165 31.4116 11.2572 25.1795 11.5208C18.9473 11.7844 15.6125 15.1684 14.0854 21.7238C12.5583 28.2792 12.9628 32.0458 12.9628 32.0458C12.9628 32.0458 9.91688 32.1734 10.0077 36.059C10.0985 39.9446 14.0772 39.1624 14.0772 39.1624C14.0542 40.3386 14.3701 41.4955 14.9851 42.4869C15.9922 44.0683 16.4462 44.6635 16.4462 44.6635C16.4462 44.6635 12.418 46.245 12.385 46.0069C12.352 45.7688 13.4168 42.1468 13.2765 41.7556C13.1361 41.3645 12.451 40.5993 12.2034 40.5993C11.9557 40.5993 4.18825 40.9479 4.11396 40.5993C4.03967 40.2507 5.83915 37.4024 7.63863 35.0642C9.43812 32.726 10.3213 31.8248 10.2883 31.5102C10.2553 31.1956 9.0419 29.7161 6.3922 29.3165C3.7425 28.9169 2.69418 28.9594 2.76022 28.8574C4.05172 27.1431 5.53389 25.5907 7.17638 24.232C7.99248 23.7775 8.7024 23.1449 9.25652 22.3785C7.85097 20.76 6.61939 18.9897 5.58326 17.0985C4.12221 14.2671 4.03967 12.3966 4.13872 12.286Z" fill="#85BFE9"/>
<path d="M16.2481 8.59596C15.9531 7.32848 15.7244 6.04559 15.563 4.75284C16.606 5.04616 17.6202 5.43897 18.5924 5.92618C18.5924 6.07072 18.5924 6.6744 18.4933 6.6744C17.9079 6.5083 17.3122 6.38331 16.7104 6.30029C16.7104 6.40232 16.991 8.00079 16.958 8.0603C16.925 8.11982 16.3141 8.68949 16.2481 8.59596Z" fill="#1D1D1B"/>
<path d="M29.0178 6.47036C29.8376 5.75052 30.7416 5.13925 31.7088 4.65083C32.6993 4.28522 32.5342 4.11517 32.6993 4.28522C32.8644 4.45527 33.0873 5.02494 32.98 5.13547C32.126 5.43545 31.2977 5.80801 30.5036 6.2493C29.7195 6.78495 29.6782 7.09954 29.4883 7.03152C29.2985 6.9635 29.1169 6.6149 29.0178 6.47036Z" fill="#1D1D1B"/>
<path d="M12.905 33.6103C13.2214 34.9634 13.4148 36.3439 13.4828 37.734C13.3838 37.734 11.5348 37.5044 11.5182 36.127C11.5397 35.6244 11.6765 35.1342 11.9176 34.6967C12.1587 34.2592 12.4971 33.8869 12.905 33.6103Z" fill="#E6E4DA"/>
<path d="M39.3277 33.6443C39.435 33.5253 41.284 33.6443 40.9786 35.2853C40.6732 36.9263 38.6756 37.5044 38.6343 37.2834C38.7808 36.6142 38.9599 35.953 39.1709 35.3023C39.402 34.3075 39.1214 33.8569 39.3277 33.6443Z" fill="#E6E4DA"/>
<path d="M25.0557 13.0343C28.3575 13.0343 32.3527 13.2213 35.4811 18.8415C38.6096 24.4616 38.2629 28.9169 37.4127 33.9419C36.5625 38.9668 35.2087 41.9682 34.3668 42.929C34.0437 43.3258 33.6904 43.6954 33.3102 44.0343C32.6764 43.5161 31.9965 43.0606 31.2796 42.6739C31.1062 42.7419 30.8668 42.997 30.9411 43.1331C31.0154 43.2691 32.592 44.4254 32.526 44.536C32.46 44.6465 31.5685 45.2842 31.4694 45.1737C30.8203 44.5981 30.1396 44.0615 29.4306 43.5667C29.2985 43.5667 28.8858 43.8898 28.96 44.0343C29.0343 44.1789 30.9164 45.4287 30.7183 45.5733C30.5202 45.7178 29.4223 46.2195 29.282 46.1089C29.1416 45.9984 27.6889 44.4679 27.5568 44.4679C27.4247 44.4679 27.045 44.6805 27.1441 44.8591C27.2431 45.0376 28.3244 46.364 28.3244 46.364C26.0909 46.641 23.8316 46.6124 21.6053 46.279C18.5511 45.7008 16.3967 42.2318 15.4144 38.5332C14.4321 34.8346 14.4321 26.9613 15.4969 22.6081C16.5618 18.2548 18.4355 13.0853 25.0557 13.0343Z" fill="#E6E4DA"/>
<path d="M24.255 48.022C24.354 47.92 25.2868 48.09 26.2113 48.022C27.1358 47.954 27.5815 47.971 27.5815 48.073C27.5815 48.175 27.6971 49.629 27.5815 49.663C27.1723 49.7946 26.7366 49.8122 26.3186 49.714C25.9375 49.5093 25.5095 49.4152 25.0804 49.4419C24.742 49.5099 24.5356 49.765 24.4283 49.6204C24.294 49.0994 24.2356 48.5607 24.255 48.022Z" fill="#E6E4DA"/>
<path d="M18.2374 18.2123C18.5098 18.1103 20.7138 16.7414 26.0049 16.7669C31.2961 16.7924 34.309 18.2548 34.3833 18.6799C34.4576 19.105 34.3833 20.763 34.0944 20.763C33.8055 20.763 32.1628 19.5812 26.0957 19.6492C20.0287 19.7172 18.287 21.2052 17.9485 20.9671C17.6101 20.729 17.2469 18.5694 18.2374 18.2123Z" fill="#1D1D1B"/>
<path d="M18.5841 18.799C18.7905 18.3568 21.2834 17.3621 26.2856 17.6001C31.2878 17.8382 33.6321 18.7054 33.6321 18.9945C33.6321 19.2836 33.8054 19.7342 33.6321 19.7342C31.1718 19.0033 28.6128 18.6875 26.0545 18.799C23.5842 18.8976 21.1306 19.2594 18.7327 19.8788C18.4521 19.7938 18.5181 18.9095 18.5841 18.799Z" fill="#85BFE9"/>
<path d="M28.3079 22.1999C30.611 21.2306 34.9116 21.9363 34.7547 26.7743C34.5979 31.6122 28.8693 32.2924 26.9294 29.5886C24.9896 26.8848 25.9141 23.1947 28.3079 22.1999Z" fill="#1D1D1B"/>
<path d="M28.6711 22.9567C30.5532 22.1574 34.0696 22.7356 33.9623 26.7062C33.855 30.6769 29.1251 31.2381 27.532 29.0019C25.9389 26.7658 26.7066 23.7814 28.6711 22.9567Z" fill="white"/>
<path d="M18.8978 22.0724C21.0192 21.1797 24.9648 21.8258 24.841 26.2811C24.7172 30.7364 19.4178 31.3826 17.6266 28.8829C15.8354 26.3832 16.6938 22.9992 18.8978 22.0724Z" fill="#1D1D1B"/>
<path d="M19.2362 22.7781C20.9697 22.0469 24.1889 22.5741 24.1064 26.2386C24.0238 29.9032 19.6572 30.4133 18.1879 28.3727C16.7186 26.3321 17.4615 23.5433 19.2362 22.7781Z" fill="white"/>
<path d="M20.3588 25.4734C20.5061 25.4014 20.6697 25.3727 20.8318 25.3906C20.9938 25.4085 21.1479 25.4722 21.277 25.5747C21.4061 25.6772 21.5051 25.8144 21.5631 25.9713C21.6211 26.1282 21.6359 26.2985 21.6057 26.4635C21.5756 26.6285 21.5017 26.7816 21.3923 26.906C21.2829 27.0304 21.1422 27.1212 20.9858 27.1684C20.8293 27.2155 20.6633 27.2171 20.506 27.1731C20.3488 27.1291 20.2064 27.0411 20.0947 26.9188C20.0071 26.811 19.9439 26.6844 19.9094 26.5484C19.8749 26.4123 19.8702 26.2701 19.8954 26.1319C19.9207 25.9937 19.9753 25.863 20.0555 25.7491C20.1356 25.6353 20.2392 25.5411 20.3588 25.4734Z" fill="#1D1D1B"/>
<path d="M30.0662 25.8475C30.2138 25.7766 30.3775 25.7492 30.5393 25.7681C30.7012 25.7871 30.8547 25.8518 30.9831 25.9551C31.1114 26.0584 31.2095 26.1962 31.2666 26.3533C31.3237 26.5104 31.3374 26.6808 31.3064 26.8454C31.2754 27.0101 31.2007 27.1627 31.0907 27.2865C30.9808 27.4102 30.8397 27.5002 30.6832 27.5465C30.5266 27.5928 30.3607 27.5936 30.2038 27.5489C30.0468 27.5041 29.9049 27.4155 29.7938 27.2929C29.7065 27.1845 29.6437 27.0575 29.6099 26.921C29.576 26.7846 29.572 26.6421 29.5981 26.5038C29.6241 26.3656 29.6796 26.235 29.7606 26.1215C29.8415 26.008 29.9459 25.9144 30.0662 25.8475Z" fill="#1D1D1B"/>
<path d="M17.3955 30.4814C18.0904 31.1029 18.9558 31.4862 19.8718 31.5782C20.7277 31.6422 21.5879 31.553 22.4142 31.3146C22.5793 31.3571 22.5876 31.8673 22.5793 32.0033C21.5986 32.4246 20.5194 32.5399 19.4756 32.3349C18.5405 32.2234 17.6686 31.7924 16.9993 31.1105C16.925 30.966 17.2964 30.4814 17.3955 30.4814Z" fill="#1D1D1B"/>
<path d="M29.6121 32.0458C30.4903 32.3332 31.4333 32.3332 32.3114 32.0458C33.1186 31.7704 33.8708 31.347 34.5318 30.796C34.7052 30.796 34.9033 31.2381 34.9446 31.3656C34.1992 32.1485 33.2457 32.6869 32.2041 32.9131C31.3088 33.1664 30.3575 33.1097 29.4966 32.7515C29.3563 32.6835 29.5131 32.0798 29.6121 32.0458Z" fill="#1D1D1B"/>
<path d="M23.8835 32.2244C23.8835 32.1138 24.4861 31.9693 24.5274 32.1393C24.5687 32.3094 24.4201 37.5639 25.8233 37.5299C27.2266 37.4959 26.7644 32.1223 26.8964 32.0458C27.1119 32.0041 27.333 32.0041 27.5485 32.0458C27.5485 32.0458 28.374 38.4992 25.8976 38.4652C23.4213 38.4312 23.8918 32.2924 23.8835 32.2244Z" fill="#1D1D1B"/>
<path d="M17.5853 40.3102C17.5589 39.8116 17.6118 39.3118 17.7422 38.8308C17.9485 38.3632 18.5676 37.836 18.6997 37.87C18.8318 37.904 19.1124 38.2526 19.0051 38.3972C18.8978 38.5417 18.2952 38.8903 18.2622 39.3155C18.2292 39.7406 18.2622 40.4803 18.1714 40.5228C17.9588 40.5198 17.7529 40.4451 17.5853 40.3102Z" fill="#1D1D1B"/>
<path d="M31.552 37.9381C31.552 37.9381 31.9895 37.4024 32.1298 37.4024C32.4083 37.5169 32.6615 37.6881 32.8743 37.9058C33.087 38.1235 33.2549 38.3832 33.368 38.6693C33.6816 39.5195 33.6899 40.3188 33.4505 40.3698C33.2111 40.4208 32.7984 40.4803 32.7984 40.3698C32.7984 40.2592 33.1368 39.3155 32.7984 38.7458C32.4609 38.3661 32.0303 38.0871 31.552 37.9381Z" fill="#1D1D1B"/>
<path d="M19.4261 39.6981C19.5994 39.7491 21.2586 40.9139 25.1299 40.7779C27.3233 40.6555 29.4885 40.2118 31.5602 39.46C31.6579 39.6813 31.7059 39.9226 31.7005 40.1657C31.7005 40.3017 28.9353 41.7387 24.9979 41.6621C21.0605 41.5856 19.2692 40.6163 19.2197 40.4718C19.1702 40.3272 19.327 39.6641 19.4261 39.6981Z" fill="#1D1D1B"/>
</svg>
