<svg width="25" height="25" viewBox="0 0 25 25" stroke="#C1C1C1" fill="none" xmlns="http://www.w3.org/2000/svg">
<path d="M12.5 15.625C14.2259 15.625 15.625 14.2259 15.625 12.5C15.625 10.7741 14.2259 9.375 12.5 9.375C10.7741 9.375 9.375 10.7741 9.375 12.5C9.375 14.2259 10.7741 15.625 12.5 15.625Z" stroke-width="1.5" stroke-miterlimit="10" stroke-linecap="round" stroke-linejoin="round"/>
<path d="M2.08333 13.4166V11.5832C2.08333 10.4999 2.96875 9.60411 4.06249 9.60411C5.94791 9.60411 6.71874 8.27078 5.77083 6.63536C5.22916 5.69786 5.55208 4.47911 6.49999 3.93744L8.30208 2.90619C9.12499 2.41661 10.1875 2.70828 10.6771 3.53119L10.7917 3.72911C11.7292 5.36453 13.2708 5.36453 14.2187 3.72911L14.3333 3.53119C14.8229 2.70828 15.8854 2.41661 16.7083 2.90619L18.5104 3.93744C19.4583 4.47911 19.7812 5.69786 19.2396 6.63536C18.2917 8.27078 19.0625 9.60411 20.9479 9.60411C22.0312 9.60411 22.9271 10.4895 22.9271 11.5832V13.4166C22.9271 14.4999 22.0417 15.3957 20.9479 15.3957C19.0625 15.3957 18.2917 16.7291 19.2396 18.3645C19.7812 19.3124 19.4583 20.5207 18.5104 21.0624L16.7083 22.0937C15.8854 22.5832 14.8229 22.2916 14.3333 21.4687L14.2187 21.2707C13.2812 19.6353 11.7396 19.6353 10.7917 21.2707L10.6771 21.4687C10.1875 22.2916 9.12499 22.5832 8.30208 22.0937L6.49999 21.0624C5.55208 20.5207 5.22916 19.302 5.77083 18.3645C6.71874 16.7291 5.94791 15.3957 4.06249 15.3957C2.96875 15.3957 2.08333 14.4999 2.08333 13.4166Z" stroke-width="1.5" stroke-miterlimit="10" stroke-linecap="round" stroke-linejoin="round"/>
</svg>
